<svg xmlns="http://www.w3.org/2000/svg" viewBox="0 0 24 16" width="24" height="16">
  <rect width="24" height="16" fill="#FFFFFF"/>
  <!-- Red stripes -->
  <g fill="#B22234">
    <rect x="0" y="0" width="24" height="1.23"/>
    <rect x="0" y="2.46" width="24" height="1.23"/>
    <rect x="0" y="4.92" width="24" height="1.23"/>
    <rect x="0" y="7.38" width="24" height="1.23"/>
    <rect x="0" y="9.84" width="24" height="1.23"/>
    <rect x="0" y="12.3" width="24" height="1.23"/>
    <rect x="0" y="14.76" width="24" height="1.24"/>
  </g>
  <!-- Canton -->
  <rect x="0" y="0" width="10.6" height="8.6" fill="#3C3B6E"/>
  <!-- Simple star dots (stylized) -->
  <g fill="#FFFFFF" opacity="0.95">
    <circle cx="1.6" cy="1.4" r="0.35"/>
    <circle cx="3.4" cy="1.4" r="0.35"/>
    <circle cx="5.2" cy="1.4" r="0.35"/>
    <circle cx="7.0" cy="1.4" r="0.35"/>
    <circle cx="8.8" cy="1.4" r="0.35"/>
    <circle cx="2.5" cy="2.6" r="0.35"/>
    <circle cx="4.3" cy="2.6" r="0.35"/>
    <circle cx="6.1" cy="2.6" r="0.35"/>
    <circle cx="7.9" cy="2.6" r="0.35"/>
    <circle cx="1.6" cy="3.8" r="0.35"/>
    <circle cx="3.4" cy="3.8" r="0.35"/>
    <circle cx="5.2" cy="3.8" r="0.35"/>
    <circle cx="7.0" cy="3.8" r="0.35"/>
    <circle cx="8.8" cy="3.8" r="0.35"/>
    <circle cx="2.5" cy="5.0" r="0.35"/>
    <circle cx="4.3" cy="5.0" r="0.35"/>
    <circle cx="6.1" cy="5.0" r="0.35"/>
    <circle cx="7.9" cy="5.0" r="0.35"/>
    <circle cx="1.6" cy="6.2" r="0.35"/>
    <circle cx="3.4" cy="6.2" r="0.35"/>
    <circle cx="5.2" cy="6.2" r="0.35"/>
    <circle cx="7.0" cy="6.2" r="0.35"/>
    <circle cx="8.8" cy="6.2" r="0.35"/>
    <circle cx="2.5" cy="7.4" r="0.35"/>
    <circle cx="4.3" cy="7.4" r="0.35"/>
    <circle cx="6.1" cy="7.4" r="0.35"/>
    <circle cx="7.9" cy="7.4" r="0.35"/>
  </g>
</svg>

